/* XPM */
static char * obj1_xpm[] = {
"329 16 2 1",
" 	c None",
".	c #929292",
"                                                                                                                                                                                                                                                                                                                                         ",
"                                                                                                                                                                                                                                                                                                                                         ",
"              ...                 ...                       ....                                                                 ...       ...              ...                                  ...                                                                 ...                             ...       ...                       ",
"    .......   ...                 ...        .....          ..                                                                   ...       ...              ...                           ...    ...                                    ...                   ...    ...                             ...       ...                  ..   ",
"    ...                           ...       .   ...        ...                                                                   ...       ...                                            ...    ...                                    ...                   ...    ...                             ...                            ..   ",
"    ...       ...  .......    .......            ..       ...... ...  ...   ....     ....    ....        ......   .......    .......       .......   ...... ...  .......    .......      ......  .......     ....   ....... ...        ......    ....        ......  .......     ....         ....   .......   ...  .......         ..   ",
"    ...       ...  ...  ...  ...  ...           ...        ...   ...  ...  ..   .  ...  ..  ..   .           ...  ...  ...  ...  ...       ...  ...  ...    ...  ...  ...  ...  ...       ...    ...  ...  ...  ..  ...  ...  ..        ...    ...  ..        ...    ...  ...  ...  ..       ..   .  ...  ...  ...  ...  ...        ..   ",
"    .......   ...  ...  ...  ..   ...         ....         ...   ...  ...  ..      ..   ... ..                ..  ...  ...  ..   ...       ...   ..  ...    ...  ...  ...  ..   ...       ...    ...  ...  ..   ... ...  ...  ..        ...    ..   ...       ...    ...  ...  ..   ...      ..      ...  ...  ...  ...   ..        ..   ",
"    ...       ...  ...  ...  ..   ...           ...        ...   ...  ...  ......  ........ ......        ......  ...  ...  ..   ...       ...   ..  ...    ...  ...  ...  ..   ...       ...    ...  ...  ........ ...  ...  ..        ...    ..   ...       ...    ...  ...  ........      ......  ...  ...  ...  ...   ..        ..   ",
"    ...       ...  ...  ...  ..   ...            ...       ...   ...  ...   .....  ..        .....       ..   ..  ...  ...  ..   ...       ...   ..  ...    ...  ...  ...  ..   ...       ...    ...  ...  ..       ...  ...  ..        ...    ..   ...       ...    ...  ...  ..             .....  ...  ...  ...  ...   ..        ..   ",
"    ...       ...  ...  ...  ..   ...            ...       ...   ...  ...      ... ..           ...      ..   ..  ...  ...  ..   ...       ...   ..  ...    ...  ...  ...  ..   ...       ...    ...  ...  ..       ...  ...  ..        ...    ..   ...       ...    ...  ...  ..                ... ...  ...  ...  ...   ..             ",
"    ...       ...  ...  ...  ...  ...       .   ...        ...   ...  ...  .   ..  ...   .  .   ..       ..  ...  ...  ...  ...  ...       ...  ...  ...    ...  ...  ...  ...  ...        ..    ...  ...  ...   .  ...  ...  ..         ..    ...  ..         ..    ...  ...  ...   .       .   ..  ...  ...  ...  ...  ...        ..   ",
"    ...       ...  ...  ...   .......        .....         ...    .......   ....     ....    ....         ... ..  ...  ...   .......       .......   ...    ...  ...  ...   .......        ....  ...  ...    ....   ...  ...  ..         ....    ....          ....  ...  ...    ....         ....   ...  ...  ...  .......         ..   ",
"                                                                                                                                                                                ...                                                                                                                                 ...                  ",
"                                                                                                                                                                                ..                                                                                                                                  ...                  ",
"                                                                                                                                                                            .....                                                                                                                                   ...                  "};
