/* XPM */
static char * 0_xpm[] = {
"70 80 25 1",
" 	c None",
".	c #000000",
"+	c #000001",
"@	c #030000",
"#	c #010000",
"$	c #040000",
"%	c #000003",
"&	c #010007",
"*	c #000007",
"=	c #0B0201",
"-	c #000006",
";	c #0B0100",
">	c #020000",
",	c #000005",
"'	c #000004",
")	c #000002",
"!	c #00010A",
"~	c #000008",
"{	c #000103",
"]	c #000109",
"^	c #080100",
"/	c #00010B",
"(	c #000102",
"_	c #040100",
":	c #070100",
"                                                                      ",
"                                                                      ",
"                                                                      ",
"             ......................................+                  ",
"             @......................................                  ",
"              #......................................                 ",
"              $......................................%                ",
"             #........................................        &       ",
"           ...........................................+     ..*       ",
"         ..............................................+ =....-       ",
"       ;......................................................-       ",
"        ........  >...........................................-       ",
"        ........   ...........................................-       ",
"        ........                                      ........-       ",
"        ........                                      ........,       ",
"        ........                                      ........,       ",
"        ........                                      ........,       ",
"        ........                                      ........,       ",
"        ........                                      ........'       ",
"        ........                                      ........'       ",
"        ........                                      ........'       ",
"        ........                                      ........'       ",
"        ........                                      ........'       ",
"        ........                                      ........%       ",
"        ........                                      ........%       ",
"        ........                                      ........%       ",
"        ........                                      ........%       ",
"        ........                                      ........)       ",
"        ........!                                     ........)       ",
"        ........~                                     ........)       ",
"        ........~                                     ........)       ",
"        ........~                                     ........)       ",
"        ........~                                     ........+       ",
"        ........*                                     ........+       ",
"        ........*                                     ........+       ",
"        ........*                                     ........+       ",
"        ......+                                       ........+       ",
"        .....                                         .......{        ",
"        ...                                           .....+          ",
"        .]                                            ....+           ",
"               #.                                     .......         ",
"             ....                                     .......         ",
"          ^......                                     .......         ",
"         ........                                    ........         ",
"         ........                                    ........         ",
"         ........!                                   ........         ",
"         ........~                                   ........         ",
"         ........~                                   ........         ",
"         ........~                                   ........         ",
"         ........~                                   ......../        ",
"         ........*                                   ........]        ",
"         ........*                                   ........~        ",
"         ........*                                   ........~        ",
"         ........*                                   ........~        ",
"         ........-                                   ........~        ",
"         ........-                                   ........*        ",
"         ........-                                   ........*        ",
"         ........-                                   ........*        ",
"         ........,                                   ........*        ",
"         ........,                                   ........*        ",
"         ........,                                   ........-        ",
"         ........,                                   ........-        ",
"         ........'                                   ........-        ",
"         ........'                                   ........-        ",
"         ........'                                   ........-        ",
"         ........'                                   ........,        ",
"         ........%                                   ........,        ",
"         ........%                                   ........,        ",
"         .........                                   ........,        ",
"         .........................................   .......(         ",
"         .........................................)  .....+           ",
"         ...............................................+             ",
"         ..............................................               ",
"              .......................................                 ",
"              _......................................                 ",
"               #.....................................%                ",
"                ......................................                ",
"                :.....................................+               ",
"                 #.....................................               ",
"                                                                      "};
