/* XPM */
static char * 1_xpm[] = {
"70 80 15 1",
" 	c None",
".	c #0C0201",
"+	c #040100",
"@	c #000000",
"#	c #010000",
"$	c #020000",
"%	c #030000",
"&	c #040000",
"*	c #050000",
"=	c #060000",
"-	c #070000",
";	c #080000",
">	c #000109",
",	c #000103",
"'	c #080001",
"                                                                      ",
"                                                                      ",
"                                                                      ",
"                                                                      ",
"                                                                      ",
"                                                                      ",
"                                                                      ",
"                                                                      ",
"                                                                      ",
"                                       .                              ",
"                                     +@@                              ",
"                                   #@@@@                              ",
"                                 #@@@@@@                              ",
"                               $@@@@@@@@                              ",
"                               $@@@@@@@@                              ",
"                               $@@@@@@@@                              ",
"                               %@@@@@@@@                              ",
"                               %@@@@@@@@                              ",
"                               %@@@@@@@@                              ",
"                               %@@@@@@@@                              ",
"                               %@@@@@@@@                              ",
"                               &@@@@@@@@                              ",
"                               &@@@@@@@@                              ",
"                               &@@@@@@@@                              ",
"                               &@@@@@@@@                              ",
"                               &@@@@@@@@                              ",
"                               *@@@@@@@@                              ",
"                               *@@@@@@@@                              ",
"                               *@@@@@@@@                              ",
"                               *@@@@@@@@                              ",
"                               =@@@@@@@@                              ",
"                               =@@@@@@@@                              ",
"                               =@@@@@@@@                              ",
"                               =@@@@@@@@                              ",
"                               =@@@@@@@@                              ",
"                               -@@@@@@@@                              ",
"                               -@@@@@@@@                              ",
"                               -@@@@@@@@                              ",
"                               -@@@@@@@@                              ",
"                               -@@@@@@@@                              ",
"                               ;@@@@@@@@                              ",
"                               ;@@@@@@@@                              ",
"                               ;@@@@@@@@                              ",
"                               ;@@@@@@@@                              ",
"                               $@@@@@@@@                              ",
"                               $@@@@@@@@                              ",
"                               $@@@@@@@@                              ",
"                               %@@@@@@@@                              ",
"                               %@@@@@@@@                              ",
"                               %@@@@@@@@                              ",
"                               %@@@@@@@@                              ",
"                               %@@@@@@@@                              ",
"                               &@@@@@@@@                              ",
"                               &@@@@@@@@                              ",
"                               &@@@@@@@@                              ",
"                               &@@@@@@@@                              ",
"                               &@@@@@@@@                              ",
"                               *@@@@@@@@                              ",
"                               *@@@@@@@@                              ",
"                               *@@@@@@@@                              ",
"                               *@@@@@@@@                              ",
"                               =@@@@@@@@                              ",
"                               =@@@@@@@@                              ",
"                               =@@@@@@@@                              ",
"                               =@@@@@@@@                              ",
"                               =@@@@@@@@                              ",
"                               -@@@@@@@@                              ",
"                               -@@@@@@@@                              ",
"                               -@@@@@@@@                              ",
"                               -@@@@@@@@                              ",
"                               -@@@@@@@                               ",
"                               ;@@@@@                                 ",
"                               ;@@@>                                  ",
"                               ;@,                                    ",
"                               '                                      ",
"                                                                      ",
"                                                                      ",
"                                                                      ",
"                                                                      ",
"                                                                      "};
