/* XPM */
static char * 2_xpm[] = {
"70 80 24 1",
" 	c None",
".	c #000000",
"+	c #000001",
"@	c #030000",
"#	c #010000",
"$	c #000003",
"%	c #060100",
"&	c #010405",
"*	c #040100",
"=	c #0C0100",
"-	c #020000",
";	c #040000",
">	c #0B0100",
",	c #000102",
"'	c #020201",
")	c #000002",
"!	c #000004",
"~	c #00010B",
"{	c #000008",
"]	c #000007",
"^	c #000006",
"/	c #000005",
"(	c #00010C",
"_	c #070100",
"                                                                      ",
"                                                                      ",
"             ......................................+                  ",
"             @......................................                  ",
"              #......................................                 ",
"               ......................................$                ",
"               %......................................                ",
"                #.....................................+     ..        ",
"                 .......................................&*....        ",
"                 =............................................        ",
"                  -...........................................        ",
"                   ...........................................        ",
"                                                     .........        ",
"                                                     .........        ",
"                                                     .........        ",
"                                                     .........        ",
"                                                     #........        ",
"                                                     #........        ",
"                                                     #........        ",
"                                                     #........        ",
"                                                     #........        ",
"                                                     -........        ",
"                                                     -........        ",
"                                                     -........        ",
"                                                     -........        ",
"                                                     -........        ",
"                                                     @........        ",
"                                                     @........        ",
"                                                     @........        ",
"                                                     @........        ",
"                                                     @........        ",
"                                                     ;........        ",
"           #......................................   ;........        ",
"            .......................................  ;........        ",
"            >......................................,'.........        ",
"             #................................................        ",
"              ...............................................+        ",
"               ............................................+          ",
"               -..........................................            ",
"               -........................................              ",
"             #.........................................               ",
"           ............................................)              ",
"         ........!                                                    ",
"         ........                                                     ",
"         ........~                                                    ",
"         ........{                                                    ",
"         ........{                                                    ",
"         ........{                                                    ",
"         ........{                                                    ",
"         ........]                                                    ",
"         ........]                                                    ",
"         ........]                                                    ",
"         ........]                                                    ",
"         ........^                                                    ",
"         ........^                                                    ",
"         ........^                                                    ",
"         ........^                                                    ",
"         ......../                                                    ",
"         ......../                                                    ",
"         ......../                                                    ",
"         ......../                                                    ",
"         ........!                                                    ",
"         ........!                                                    ",
"         ........!                                                    ",
"         ........!                                                    ",
"         ........$                                                    ",
"         ........$                                                    ",
"         .........                                                    ",
"         .........................................                    ",
"         .........................................)                   ",
"         ..........................................                   ",
"         ..........................................+                  ",
"              ......................................(                 ",
"              *......................................                 ",
"               #.....................................$                ",
"                ......................................                ",
"                _.....................................+               ",
"                 #.....................................               ",
"                                                                      ",
"                                                                      "};
