/* XPM */
static char * 3_xpm[] = {
"70 80 29 1",
" 	c None",
".	c #000000",
"+	c #000001",
"@	c #020000",
"#	c #000105",
"$	c #090100",
"%	c #040100",
"&	c #030100",
"*	c #010000",
"=	c #00010B",
"-	c #000109",
";	c #000008",
">	c #000007",
",	c #000006",
"'	c #000005",
")	c #000004",
"!	c #000003",
"~	c #080100",
"{	c #000107",
"]	c #000104",
"^	c #000002",
"/	c #0A0100",
"(	c #020100",
"_	c #030000",
":	c #040000",
"<	c #050000",
"[	c #060000",
"}	c #070000",
"|	c #050100",
"                                                                      ",
"                                                                      ",
"                                                                      ",
"                                                                      ",
"           ......................................+                    ",
"           @......................................                    ",
"            .......................................                   ",
"             ......................................#        $         ",
"             %......................................      &..         ",
"              *.....................................+   *....         ",
"               ..............................................=        ",
"               $.............................................-        ",
"                *............................................;        ",
"                 ............................................;        ",
"                                                     ........;        ",
"                                                     ........;        ",
"                                                     ........>        ",
"                                                     ........>        ",
"                                                     ........>        ",
"                                                     ........>        ",
"                                                     ........>        ",
"                                                     ........,        ",
"                                                     ........,        ",
"                                                     ........,        ",
"                                                     ........,        ",
"                                                     ........,        ",
"                                                     ........'        ",
"                                                     ........'        ",
"                                                     ........'        ",
"                                                     ........'        ",
"                                                     ........)        ",
"                                                     ........)        ",
"                                                     ........)        ",
"                                                     ........)        ",
"         *......................................     ........)        ",
"          ......................................+    ........!        ",
"          ~......................................{   ........!        ",
"           *......................................   .......]         ",
"            ......................................^  .....+           ",
"             ...........................................+             ",
"             @.........................................      /        ",
"              .......................................      (..        ",
"               ......................................    *....        ",
"               _..............................................        ",
"                                                     .........        ",
"                                                     *........        ",
"                                                     *........        ",
"                                                     *........        ",
"                                                     @........        ",
"                                                     @........        ",
"                                                     @........        ",
"                                                     @........        ",
"                                                     _........        ",
"                                                     _........        ",
"                                                     _........        ",
"                                                     _........        ",
"                                                     _........        ",
"                                                     :........        ",
"                                                     :........        ",
"                                                     :........        ",
"                                                     :........        ",
"                                                     :........        ",
"                                                     <........        ",
"                                                     <........        ",
"                                                     <........        ",
"                                                     <........        ",
"                                                     [........        ",
"                                                     [........        ",
"                                                     [........        ",
"                                                     [........        ",
"         .......................................     [......+         ",
"          ......................................!    }....+           ",
"          @......................................    }...             ",
"           ......................................+   }.               ",
"            ......................................                    ",
"            _......................................                   ",
"             *.....................................]                  ",
"              ......................................                  ",
"              |.....................................+                 ",
"               *.....................................                 "};
