/* XPM */
static char * 4_xpm[] = {
"70 80 17 1",
" 	c None",
".	c #010000",
"+	c #000000",
"@	c #050100",
"#	c #0A0100",
"$	c #030100",
"%	c #030000",
"&	c #000004",
"*	c #000002",
"=	c #040000",
"-	c #000102",
";	c #000001",
">	c #000106",
",	c #070601",
"'	c #000105",
")	c #020000",
"!	c #00010C",
"                                                                      ",
"                                                                      ",
"                                                                      ",
"                                                                      ",
"                                                                      ",
"                                                               .+     ",
"              @+                                             ++++     ",
"            .+++                                          #++++++     ",
"          .+++++                                        $++++++++     ",
"        ++++++++                                        %++++++++     ",
"        ++++++++                                        %++++++++     ",
"        ++++++++                                        %++++++++     ",
"        ++++++++                                        %++++++++     ",
"        ++++++++                                        %++++++++     ",
"        ++++++++                                        %++++++++     ",
"        ++++++++                                        %++++++++     ",
"        ++++++++                                        %++++++++     ",
"        ++++++++                                        %++++++++     ",
"        ++++++++                                        %++++++++     ",
"        ++++++++                                        %++++++++     ",
"        ++++++++                                        %++++++++     ",
"        ++++++++                                        %++++++++     ",
"        ++++++++                                        %++++++++     ",
"        ++++++++                                        %++++++++     ",
"        ++++++++                                        %++++++++     ",
"        ++++++++                                        %++++++++     ",
"        ++++++++                                        %++++++++     ",
"        ++++++++                                        %++++++++     ",
"        ++++++++                                        %++++++++     ",
"        ++++++++                                        %++++++++     ",
"        ++++++++                                        %++++++++     ",
"        ++++++++                                        %++++++++     ",
"        ++++++++&                                       %++++++++     ",
"        ++++++++++++++++++++++++++++++++++++++++++++*   %++++++++     ",
"        +++++++++++++++++++++++++++++++++++++++++++++   =++++++-      ",
"        +++++++++++++++++++++++++++++++++++++++++++++;  =++++;        ",
"        ++++++++++++++++++++++++++++++++++++++++++++++>,++++          ",
"        ++++'   )+++++++++++++++++++++++++++++++++++++++++            ",
"        ++'      +++++++++++++++++++++++++++++++++++++++>      +      ",
"        >         ++++++++++++++++++++++++++++++++++++++     +++      ",
"                  $+++++++++++++++++++++++++++++++++++++++++++++      ",
"                   .++++++++++++++++++++++++++++++++++++++++++++      ",
"                    ++++++++++++++++++++++++++++++++++++++++++++      ",
"                                                        ++++++++      ",
"                                                        ++++++++      ",
"                                                        ++++++++      ",
"                                                        ++++++++      ",
"                                                        ++++++++      ",
"                                                        ++++++++      ",
"                                                        ++++++++      ",
"                                                        ++++++++      ",
"                                                        ++++++++      ",
"                                                        ++++++++      ",
"                                                        ++++++++      ",
"                                                        ++++++++      ",
"                                                        ++++++++      ",
"                                                        ++++++++      ",
"                                                        ++++++++      ",
"                                                        ++++++++      ",
"                                                        ++++++++      ",
"                                                        ++++++++      ",
"                                                        ++++++++      ",
"                                                        ++++++++      ",
"                                                        ++++++++      ",
"                                                        ++++++++      ",
"                                                        ++++++++      ",
"                                                        ++++++++      ",
"                                                        ++++++++      ",
"                                                        ++++++        ",
"                                                        ++++!         ",
"                                                        ++>           ",
"                                                        -             ",
"                                                                      ",
"                                                                      ",
"                                                                      ",
"                                                                      ",
"                                                                      ",
"                                                                      ",
"                                                                      ",
"                                                                      "};
