/* XPM */
static char * 6_xpm[] = {
"70 80 26 1",
" 	c None",
".	c #000000",
"+	c #000001",
"@	c #030000",
"#	c #010000",
"$	c #040000",
"%	c #000003",
"&	c #0B0100",
"*	c #020000",
"=	c #000107",
"-	c #00010C",
";	c #00010A",
">	c #000008",
",	c #000105",
"'	c #000002",
")	c #000108",
"!	c #020100",
"~	c #030303",
"{	c #000004",
"]	c #00010B",
"^	c #000007",
"/	c #000006",
"(	c #000005",
"_	c #000102",
":	c #040100",
"<	c #070100",
"                                                                      ",
"                                                                      ",
"                                                                      ",
"              ......................................+                 ",
"              @......................................                 ",
"               #......................................                ",
"               $......................................%               ",
"              #........................................               ",
"            ...........................................+              ",
"          ..............................................              ",
"        &................................................             ",
"         ........  *.....................................=            ",
"         ........   ......................................            ",
"         ........                                                     ",
"         ........                                                     ",
"         ........                                                     ",
"         ........                                                     ",
"         ........                                                     ",
"         ........                                                     ",
"         ........                                                     ",
"         ........                                                     ",
"         ........                                                     ",
"         ........                                                     ",
"         ........                                                     ",
"         ........                                                     ",
"         ........                                                     ",
"         ........                                                     ",
"         ........-                                                    ",
"         ........;                                                    ",
"         ........>                                                    ",
"         ........>                                                    ",
"         ........>                                                    ",
"         ........>                                                    ",
"         ..........................................                   ",
"         ...........................................                  ",
"         ...........................................,                 ",
"         ............................................                 ",
"         ............................................'                ",
"         ...+   ......................................                ",
"         .+     *.....................................+               ",
"                *......................................)    !.        ",
"              #.........................................+~#...        ",
"            ..................................................        ",
"          ........{                                  $........        ",
"          ........                                    ........        ",
"          ........]                                   ........        ",
"          ........>                                   ........        ",
"          ........>                                   ........        ",
"          ........>                                   ........        ",
"          ........>                                   ........-       ",
"          ........^                                   ........;       ",
"          ........^                                   ........>       ",
"          ........^                                   ........>       ",
"          ........^                                   ........>       ",
"          ......../                                   ........>       ",
"          ......../                                   ........>       ",
"          ......../                                   ........^       ",
"          ......../                                   ........^       ",
"          ........(                                   ........^       ",
"          ........(                                   ........^       ",
"          ........(                                   ......../       ",
"          ........(                                   ......../       ",
"          ........{                                   ......../       ",
"          ........{                                   ......../       ",
"          ........{                                   ......../       ",
"          ........{                                   ........(       ",
"          ........%                                   ........(       ",
"          ........%                                   ........(       ",
"          .........                                   ........(       ",
"          .........................................   ......._        ",
"          .........................................'  .....+          ",
"          ...............................................+            ",
"          ..............................................              ",
"               .......................................                ",
"               :......................................                ",
"                #.....................................%               ",
"                 ......................................               ",
"                 <.....................................+              ",
"                  #.....................................              ",
"                                                                      "};
