/* XPM */
static char * 7_xpm[] = {
"70 80 27 1",
" 	c None",
".	c #080100",
"+	c #000000",
"@	c #000002",
"#	c #010000",
"$	c #000001",
"%	c #020000",
"&	c #000003",
"*	c #060100",
"=	c #030100",
"-	c #00010C",
";	c #00010A",
">	c #000008",
",	c #000007",
"'	c #000006",
")	c #000005",
"!	c #000004",
"~	c #000106",
"{	c #000102",
"]	c #0A0401",
"^	c #080000",
"/	c #090100",
"(	c #0B0100",
"_	c #00010B",
":	c #000109",
"<	c #000107",
"[	c #000103",
"                                                                      ",
"                                                                      ",
"                                                                      ",
"                                                                      ",
"                                                                      ",
"         .++++++++++++++++++++++++++++++++++++++@                     ",
"          #++++++++++++++++++++++++++++++++++++++                     ",
"           ++++++++++++++++++++++++++++++++++++++$                    ",
"            ++++++++++++++++++++++++++++++++++++++                    ",
"            %++++++++++++++++++++++++++++++++++++++                   ",
"             ++++++++++++++++++++++++++++++++++++++&     ++           ",
"              ++++++++++++++++++++++++++++++++++++++@ *++++           ",
"              =++++++++++++++++++++++++++++++++++++++++++++           ",
"               #+++++++++++++++++++++++++++++++++++++++++++           ",
"                +++++++++++++++++++++++++++++++++++++++++++           ",
"                                                   ++++++++           ",
"                                                   ++++++++           ",
"                                                   ++++++++-          ",
"                                                   ++++++++;          ",
"                                                   ++++++++>          ",
"                                                   ++++++++>          ",
"                                                   ++++++++>          ",
"                                                   ++++++++>          ",
"                                                   ++++++++>          ",
"                                                   ++++++++,          ",
"                                                   ++++++++,          ",
"                                                   ++++++++,          ",
"                                                   ++++++++,          ",
"                                                   ++++++++'          ",
"                                                   ++++++++'          ",
"                                                   ++++++++'          ",
"                                                   ++++++++'          ",
"                                                   ++++++++'          ",
"                                                   ++++++++)          ",
"                                                   ++++++++)          ",
"                                                   ++++++++)          ",
"                                                   ++++++++)          ",
"                                                   ++++++++!          ",
"                                                   ++++++++!          ",
"                                                   +++++++            ",
"                                                   +++++~             ",
"                                                   ++++{ ]            ",
"                                                   +++++++            ",
"                                                   +++++++            ",
"                                                   +++++++            ",
"                                                 ^++++++++            ",
"                                                 /++++++++            ",
"                                                 (++++++++            ",
"                                                  ++++++++            ",
"                                                  ++++++++            ",
"                                                  ++++++++            ",
"                                                  ++++++++            ",
"                                                  ++++++++            ",
"                                                  ++++++++            ",
"                                                  ++++++++            ",
"                                                  ++++++++            ",
"                                                  ++++++++            ",
"                                                  ++++++++            ",
"                                                  ++++++++            ",
"                                                  ++++++++            ",
"                                                  ++++++++            ",
"                                                  ++++++++            ",
"                                                  ++++++++            ",
"                                                  ++++++++            ",
"                                                  ++++++++            ",
"                                                  ++++++++            ",
"                                                  ++++++++            ",
"                                                  ++++++++            ",
"                                                  ++++++++_           ",
"                                                  ++++++++:           ",
"                                                  ++++++++>           ",
"                                                  +++++++             ",
"                                                  +++++               ",
"                                                  +++<                ",
"                                                  +[                  ",
"                                                                      ",
"                                                                      ",
"                                                                      ",
"                                                                      ",
"                                                                      "};
