/* XPM */
static char * 9_xpm[] = {
"70 80 31 1",
" 	c None",
".	c #000000",
"+	c #000001",
"@	c #030000",
"#	c #010000",
"$	c #040000",
"%	c #000003",
"&	c #010007",
"*	c #000007",
"=	c #0B0201",
"-	c #000006",
";	c #0B0100",
">	c #020000",
",	c #000005",
"'	c #000004",
")	c #00010C",
"!	c #000002",
"~	c #00010A",
"{	c #000008",
"]	c #00010B",
"^	c #000104",
"/	c #01020A",
"(	c #0B0901",
"_	c #03070B",
":	c #090401",
"<	c #060100",
"[	c #0C0100",
"}	c #000109",
"|	c #000103",
"1	c #040100",
"2	c #070100",
"                                                                      ",
"                                                                      ",
"              ......................................+                 ",
"              @......................................                 ",
"               #......................................                ",
"               $......................................%               ",
"              #........................................        &      ",
"            ...........................................+     ..*      ",
"          ..............................................+ =....-      ",
"        ;......................................................-      ",
"         ........  >...........................................-      ",
"         ........   ...........................................-      ",
"         ........                                      ........-      ",
"         ........                                      ........,      ",
"         ........                                      ........,      ",
"         ........                                      ........,      ",
"         ........                                      ........,      ",
"         ........                                      ........'      ",
"         ........                                      ........'      ",
"         ........                                      ........'      ",
"         ........                                      ........'      ",
"         ........                                      ........'      ",
"         ........                                      ........%      ",
"         ........                                      ........%      ",
"         ........                                      ........%      ",
"         ........                                      ........%      ",
"         ........)                                     ........!      ",
"         ........~                                     ........!      ",
"         ........{                                     ........!      ",
"         ........{                                     ........!      ",
"         ........{                                     ........!      ",
"         ........{                                     ........+      ",
"         ........*                                     ........+      ",
"         ........*                                     ........+      ",
"         ........%                                     ........+      ",
"         ..........................................~   ........+      ",
"         ...........................................   .......]       ",
"         ...........................................%  .....^         ",
"         .    @....................................../(....+_:        ",
"               #..............................................        ",
"                ..............................................        ",
"                <.............................................        ",
"                 #............................................        ",
"                  ............................................        ",
"                  [...........................................        ",
"                                                      ........        ",
"                                                      ........        ",
"                                                      ........        ",
"                                                      ........]       ",
"                                                      ........}       ",
"                                                      ........{       ",
"                                                      ........{       ",
"                                                      ........{       ",
"                                                      ........{       ",
"                                                      ........*       ",
"                                                      ........*       ",
"                                                      ........*       ",
"                                                      ........*       ",
"                                                      ........*       ",
"                                                      ........-       ",
"                                                      ........-       ",
"                                                      ........-       ",
"                                                      ........-       ",
"                                                      ........-       ",
"                                                      ........,       ",
"                                                      ........,       ",
"                                                      ........,       ",
"                                                      ........,       ",
"            .......................................   .......|        ",
"             ......................................!  .....+          ",
"             @...........................................+            ",
"              ..........................................              ",
"               .......................................                ",
"               1......................................                ",
"                #.....................................%               ",
"                 ......................................               ",
"                 2.....................................+              ",
"                  #.....................................              ",
"                                                                      ",
"                                                                      "};
