/* XPM */
static char * doublecoma_xpm[] = {
"70 80 2 1",
" 	c None",
".	c #000000",
"                                                                      ",
"                                                                      ",
"                                                                      ",
"                                                                      ",
"                                                                      ",
"                                                                      ",
"                                                                      ",
"                                                                      ",
"                                                                      ",
"                                                                      ",
"                                                                      ",
"                                                                      ",
"                                                                      ",
"                                                                      ",
"                                                                      ",
"                                                                      ",
"                                                                      ",
"                                                                      ",
"                                                                      ",
"                                                                      ",
"                                                                      ",
"                                                                      ",
"                                                                      ",
"                                                                      ",
"                                .....                                 ",
"                               .......                                ",
"                              .........                               ",
"                             ...........                              ",
"                             ...........                              ",
"                             ...........                              ",
"                             ...........                              ",
"                             ...........                              ",
"                              .........                               ",
"                               .......                                ",
"                                .....                                 ",
"                                                                      ",
"                                                                      ",
"                                                                      ",
"                                                                      ",
"                                                                      ",
"                                                                      ",
"                                                                      ",
"                                                                      ",
"                                                                      ",
"                                                                      ",
"                                                                      ",
"                                                                      ",
"                                                                      ",
"                                                                      ",
"                                                                      ",
"                                .....                                 ",
"                               .......                                ",
"                              .........                               ",
"                             ...........                              ",
"                             ...........                              ",
"                             ...........                              ",
"                             ...........                              ",
"                             ...........                              ",
"                              .........                               ",
"                               .......                                ",
"                                .....                                 ",
"                                                                      ",
"                                                                      ",
"                                                                      ",
"                                                                      ",
"                                                                      ",
"                                                                      ",
"                                                                      ",
"                                                                      ",
"                                                                      ",
"                                                                      ",
"                                                                      ",
"                                                                      ",
"                                                                      ",
"                                                                      ",
"                                                                      ",
"                                                                      ",
"                                                                      ",
"                                                                      ",
"                                                                      "};
