/* XPM */
static char * bullet_xpm[] = {
"11 36 346 2",
"  	c #341D1E",
". 	c #391A1C",
"+ 	c #401A1C",
"@ 	c #411818",
"# 	c #411916",
"$ 	c #3F1913",
"% 	c #3D1A13",
"& 	c #3C1C15",
"* 	c #381E1A",
"= 	c #2D1B19",
"- 	c #301F22",
"; 	c #3C1817",
"> 	c #531D1C",
", 	c #742D2C",
"' 	c #812B2C",
") 	c #872828",
"! 	c #8B2724",
"~ 	c #892926",
"{ 	c #812C2C",
"] 	c #692727",
"^ 	c #431A16",
"/ 	c #371D1C",
"( 	c #421713",
"_ 	c #702524",
": 	c #AC4647",
"< 	c #C54749",
"[ 	c #CE4143",
"} 	c #D43E3E",
"| 	c #D33F41",
"1 	c #C64549",
"2 	c #9B3739",
"3 	c #5B1D1A",
"4 	c #3C1C17",
"5 	c #411614",
"6 	c #7E2626",
"7 	c #CA4D4E",
"8 	c #E44D4F",
"9 	c #F0484A",
"0 	c #F64346",
"a 	c #F44448",
"b 	c #E74B50",
"c 	c #B43A3D",
"d 	c #641C1B",
"e 	c #3B1A17",
"f 	c #3F1716",
"g 	c #822323",
"h 	c #D24A48",
"i 	c #EC4847",
"j 	c #F94344",
"k 	c #FE3F41",
"l 	c #FC4144",
"m 	c #F0474B",
"n 	c #BB383B",
"o 	c #651B1B",
"p 	c #3B1C1C",
"q 	c #401815",
"r 	c #83221F",
"s 	c #D24842",
"t 	c #EE4843",
"u 	c #FB443E",
"v 	c #FE3E3A",
"w 	c #FE4341",
"x 	c #F34949",
"y 	c #BC3939",
"z 	c #641C1A",
"A 	c #3A1E1C",
"B 	c #401B17",
"C 	c #7F2520",
"D 	c #CB4A42",
"E 	c #E64D44",
"F 	c #F14B40",
"G 	c #F2443B",
"H 	c #F24941",
"I 	c #E64D48",
"J 	c #B33D39",
"K 	c #5F1E1B",
"L 	c #361E1D",
"M 	c #39191B",
"N 	c #6A1E1D",
"O 	c #A63B35",
"P 	c #B73C34",
"Q 	c #BE3C32",
"R 	c #BC372E",
"S 	c #BB3B32",
"T 	c #B33C34",
"U 	c #90342E",
"V 	c #4E1E1C",
"W 	c #312125",
"X 	c #361A21",
"Y 	c #5B161B",
"Z 	c #872927",
"` 	c #8D2320",
" .	c #90241D",
"..	c #8C241C",
"+.	c #8C271F",
"@.	c #89261D",
"#.	c #742720",
"$.	c #411C19",
"%.	c #2E2228",
"&.	c #39181E",
"*.	c #712022",
"=.	c #B13F3E",
"-.	c #C33F3B",
";.	c #CC3E39",
">.	c #CD3C38",
",.	c #CA3B38",
"'.	c #C33E37",
").	c #9D352D",
"!.	c #541E18",
"~.	c #31201E",
"{.	c #3D1618",
"].	c #812323",
"^.	c #D04A48",
"/.	c #E94945",
"(.	c #F54742",
"_.	c #F84340",
":.	c #F74441",
"<.	c #ED4844",
"[.	c #BB3A33",
"}.	c #631E16",
"|.	c #361F17",
"1.	c #3F1718",
"2.	c #842221",
"3.	c #D44947",
"4.	c #ED4744",
"5.	c #FA443F",
"6.	c #FD403E",
"7.	c #FC4240",
"8.	c #F24745",
"9.	c #BD3934",
"0.	c #651D16",
"a.	c #381F18",
"b.	c #3F1618",
"c.	c #D34847",
"d.	c #EC4845",
"e.	c #F84441",
"f.	c #FC413E",
"g.	c #F94340",
"h.	c #EF4946",
"i.	c #BB3A37",
"j.	c #641D19",
"k.	c #371E1A",
"l.	c #411518",
"m.	c #862121",
"n.	c #D54846",
"o.	c #EE4744",
"p.	c #FD403D",
"q.	c #FB4240",
"r.	c #EF4847",
"s.	c #BA3A39",
"t.	c #631D1B",
"u.	c #371E1C",
"v.	c #421517",
"w.	c #872120",
"x.	c #D74744",
"y.	c #F04742",
"z.	c #FC433C",
"A.	c #FF3F3A",
"B.	c #FD413E",
"C.	c #F04847",
"D.	c #BA3A3A",
"E.	c #631C1B",
"F.	c #421614",
"G.	c #87221E",
"H.	c #D74841",
"I.	c #F1483D",
"J.	c #FD4438",
"K.	c #FF3F35",
"L.	c #FE413A",
"M.	c #F04844",
"N.	c #381D1C",
"O.	c #401612",
"P.	c #86221C",
"Q.	c #D64840",
"R.	c #F1483C",
"S.	c #FD4437",
"T.	c #FF4035",
"U.	c #FE4238",
"V.	c #F14843",
"W.	c #381D1B",
"X.	c #D44845",
"Y.	c #EE4841",
"Z.	c #FA453C",
"`.	c #FF403A",
" +	c #FC423C",
".+	c #BC3A35",
"++	c #651C18",
"@+	c #381D19",
"#+	c #3F1619",
"$+	c #832224",
"%+	c #D34848",
"&+	c #EC4846",
"*+	c #F94541",
"=+	c #FB423F",
"-+	c #BC3A34",
";+	c #651D17",
">+	c #842123",
",+	c #D54847",
"'+	c #EE4745",
")+	c #FA4440",
"!+	c #FD413C",
"~+	c #FA423E",
"{+	c #F04942",
"]+	c #BC3A33",
"^+	c #651C17",
"/+	c #381D1A",
"(+	c #401617",
"_+	c #FC433D",
":+	c #FE4039",
"<+	c #FB433B",
"[+	c #F04940",
"}+	c #BC3A32",
"|+	c #641D18",
"1+	c #381E1C",
"2+	c #401616",
"3+	c #872121",
"4+	c #F14641",
"5+	c #FF4039",
"6+	c #EF4940",
"7+	c #BA3B32",
"8+	c #631D18",
"9+	c #371E1D",
"0+	c #FD433D",
"a+	c #FB423C",
"b+	c #EE4A41",
"c+	c #B93C34",
"d+	c #621E19",
"e+	c #361E1E",
"f+	c #D84744",
"g+	c #FD423D",
"h+	c #FB423D",
"i+	c #EF4942",
"j+	c #BA3B34",
"k+	c #621D1A",
"l+	c #3E1716",
"m+	c #D94744",
"n+	c #F14642",
"o+	c #FD423E",
"p+	c #FF3F3B",
"q+	c #F04843",
"r+	c #BB3A35",
"s+	c #631D1A",
"t+	c #371E1E",
"u+	c #F14643",
"v+	c #FD423F",
"w+	c #F24744",
"x+	c #BE3835",
"y+	c #651B1A",
"z+	c #381D1F",
"A+	c #FC423E",
"B+	c #F44744",
"C+	c #C03836",
"D+	c #661B1B",
"E+	c #87201F",
"F+	c #D94543",
"G+	c #F44845",
"H+	c #FB413D",
"I+	c #FE413D",
"J+	c #FB423E",
"K+	c #F44745",
"L+	c #BF3735",
"M+	c #651C1C",
"N+	c #351B1D",
"O+	c #431919",
"P+	c #882120",
"Q+	c #DA4545",
"R+	c #F24644",
"S+	c #F8403B",
"T+	c #FD433E",
"U+	c #FA4540",
"V+	c #F14945",
"W+	c #BD3836",
"X+	c #341D1D",
"Y+	c #421817",
"Z+	c #871E1D",
"`+	c #FB4440",
" @	c #F5433F",
".@	c #EC4A44",
"+@	c #B93B35",
"@@	c #611E1A",
"#@	c #351F1F",
"$@	c #411415",
"%@	c #8A2020",
"&@	c #DD4949",
"*@	c #EF4642",
"=@	c #F7423E",
"-@	c #F8433E",
";@	c #F34741",
">@	c #E94C44",
",@	c #B73E36",
"'@	c #621E1A",
")@	c #381F1E",
"!@	c #431516",
"~@	c #8B2020",
"{@	c #DB4747",
"]@	c #F6443F",
"^@	c #F5453F",
"/@	c #F14A42",
"(@	c #E64E43",
"_@	c #B53C33",
":@	c #641B18",
"<@	c #3D1C1D",
"[@	c #461517",
"}@	c #8F2223",
"|@	c #D84343",
"1@	c #F04744",
"2@	c #F84742",
"3@	c #F3453E",
"4@	c #EB463E",
"5@	c #E34D41",
"6@	c #B93D34",
"7@	c #701D1D",
"8@	c #44161B",
"9@	c #592629",
"0@	c #AB3F40",
"a@	c #E04C4C",
"b@	c #F04945",
"c@	c #F4463F",
"d@	c #F3473F",
"e@	c #EF4B42",
"f@	c #E95045",
"g@	c #CC4A43",
"h@	c #923439",
"i@	c #5A1D27",
"j@	c #57282A",
"k@	c #9B3D3F",
"l@	c #BA3C3D",
"m@	c #C63835",
"n@	c #CA3731",
"o@	c #CA3933",
"p@	c #C63B33",
"q@	c #C03E35",
"r@	c #B3413C",
"s@	c #8D343B",
"t@	c #571A24",
"u@	c #401F21",
"v@	c #5F2425",
"w@	c #6C2020",
"x@	c #731E1C",
"y@	c #771E1B",
"z@	c #761F1C",
"A@	c #731F1B",
"B@	c #6F201B",
"C@	c #6B2422",
"D@	c #5A2125",
"E@	c #42191F",
"  . + @ # $ % & * = - ",
"; > , ' ) ! ~ { ] ^ / ",
"( _ : < [ } | 1 2 3 4 ",
"5 6 7 8 9 0 a b c d e ",
"f g h i j k l m n o p ",
"q r s t u v w x y z A ",
"B C D E F G H I J K L ",
"M N O P Q R S T U V W ",
"X Y Z `  ...+.@.#.$.%.",
"&.*.=.-.;.>.,.'.).!.~.",
"{.].^./.(._.:.<.[.}.|.",
"1.2.3.4.5.6.7.8.9.0.a.",
"b.2.c.d.e.f.g.h.i.j.k.",
"l.m.n.o.5.p.q.r.s.t.u.",
"v.w.x.y.z.A.B.C.D.E./ ",
"F.G.H.I.J.K.L.M.s.E.N.",
"O.P.Q.R.S.T.U.V.i.z W.",
"f 2.X.Y.Z.`. +M..+++@+",
"#+$+%+&+*+6.=+M.-+;+@+",
"b.>+,+'+)+!+~+{+]+^+/+",
"(+m.x.y._+:+<+[+}+|+1+",
"2+3+x.4+_+5+<+6+7+8+9+",
"f 3+x.4+0+`.a+b+c+d+e+",
"f 3+f+4+g+A.h+i+j+k+e+",
"l+3+m+n+o+p+h+q+r+s+t+",
"l+3+m+u+v+p+h+w+x+y+z+",
"l+w.m+u+v+p+A+B+C+D+z+",
"f E+F+G+H+I+J+K+L+M+N+",
"O+P+Q+R+S+T+U+V+W+t.X+",
"Y+Z+Q+u+5.`+ @.@+@@@#@",
"$@%@&@*@=@-@;@>@,@'@)@",
"!@~@{@*@]@^@/@(@_@:@<@",
"[@}@|@1@2@3@4@5@6@7@8@",
"9@0@a@b@c@d@e@f@g@h@i@",
"j@k@l@m@n@o@p@q@r@s@t@",
"u@v@w@x@y@z@A@B@C@D@E@"};
