/* XPM */
static char * loading_xpm[] = {
"278 62 2 1",
" 	c None",
".	c #FFFFFF",
"                                                                                                                                                                                                                                                                                      ",
"....            ......           .....        ........         ....   .....     ....        .......                                                                                                                                                                                   ",
"....           .........         .....       ...........      .....   .....     ....      ..........                                                                                                                                                                                  ",
"....         ............       .......      .............    .....   ......    ....     ...........                                                                                                                                                                                  ",
"....         .............      .......      .............    .....   .......   ....    ............                                                                                                                                                                                  ",
"....        .....    .....      .......      .....    .....   .....   .......   ....   ......                                                                                                                                                                                         ",
"....        .....     .....    .........     .....     ....   .....   ........  ....   .....                                                                                                                                                                                          ",
"....        ....      .....    .... ....     .....     .....  .....   ........  ....  .....                                                                                                                                                                                           ",
"....       .....      .....    .... ....     .....     .....  .....   ......... ....  .....   .......                                                                                                                                                                                 ",
"....       .....      .....   ..... .....    .....     .....  .....   .... .... ....  .....   .......                                                                                                                                                                                 ",
"....       .....      .....   ...........    .....     .....  .....   .... .........  .....   .......                                                                                                                                                                                 ",
"....       .....      .....   ...........    .....     .....  .....   ....  ........  .....   .......                                                                                                                                                                                 ",
"....        ....      .....   ...........    .....     ....   .....   ....  ........   ....     .....                                                                                                                                                                                 ",
"....        .....    .....   .............   .....    .....   .....   ....   .......   .....    .....                                                                                                                                                                                 ",
"..........  ......  ......   ....    .....   .....  ......    .....   ....   .......   .......  .....                                                                                                                                                                                 ",
"...........  ............    ....     ....   .............    .....   ....    ......    .............                                                                                                                                                                                 ",
"...........   ..........    .....     .....  ............     .....   ....    ......     ............                                                                                                                                                                                 ",
"...........    ........     .....     .....  ..........       .....   ....     .....       .........                                                                                                                                                                                  ",
"                                                                                                                                                                                                                                                                                      ",
"                                                                                                                                                                                                                                                                                      ",
"......................................................................................................................................................................................................................................................................................",
"......................................................................................................................................................................................................................................................................................",
"......................................................................................................................................................................................................................................................................................",
"......................................................................................................................................................................................................................................................................................",
"......................................................................................................................................................................................................................................................................................",
".                                                                                                                                                                                                                                                                                    .",
".                                                                                                                                                                                                                                                                                    .",
".                                                                                                                                                                                                                                                                                    .",
".                                                                                                                                                                                                                                                                                    .",
".                                                                                                                                                                                                                                                                                    .",
".                                                                                                                                                                                                                                                                                    .",
".                                                                                                                                                                                                                                                                                    .",
".                                                                                                                                                                                                                                                                                    .",
".                                                                                                                                                                                                                                                                                    .",
".                                                                                                                                                                                                                                                                                    .",
".                                                                                                                                                                                                                                                                                    .",
".                                                                                                                                                                                                                                                                                    .",
".                                                                                                                                                                                                                                                                                    .",
".                                                                                                                                                                                                                                                                                    .",
".                                                                                                                                                                                                                                                                                    .",
".                                                                                                                                                                                                                                                                                    .",
".                                                                                                                                                                                                                                                                                    .",
".                                                                                                                                                                                                                                                                                    .",
"......................................................................................................................................................................................................................................................................................",
"......................................................................................................................................................................................................................................................................................",
"......................................................................................................................................................................................................................................................................................",
"......................................................................................................................................................................................................................................................................................",
"......................................................................................................................................................................................................................................................................................",
"                                                                                                                                                                                                                                                                                      ",
"                                                                                                                                                                                                                                                                                      ",
" .......  ...     .......    ....     ...... ........   ...  ...   ...  ....    ............                                                                                                                                                                                          ",
" ........ ...     .......    ....    ....... ........   ...  ....  ...  ....    ............                                                                                                                                                                                          ",
" ...  ... ...     ...        ....    ...  .  ...        ...  ....  ...  .....   ...   ...                                                                                                                                                                                             ",
" ...  ... ...     ...       ......   ...     ...        ...  .... ...  ......   ...   ...                                                                                                                                                                                             ",
" ...  ... ...     .......   ......   ....    .......     .. ..... ...  ......   ...   ...                                                                                                                                                                                             ",
" ........ ...     .......   .. ...    .....  .......     ............  ..  ...  ...   ...                                                                                                                                                                                             ",
" .......  ...     .......  ........    ..... .......     ..... .....  ........  ...   ...                                                                                                                                                                                             ",
" ...      ...     ...      ........      ... ...         ..... .....  ........  ...   ...                                                                                                                                                                                             ",
" ...      ...     ...      ..   ...      ... ...          ....  ....  ...  .... ...   ...   ..  ..  .                                                                                                                                                                                 ",
" ...      ...................    ... ....... ........     ....  .... ...    ... ...   ...  ....... ...                                                                                                                                                                                ",
" ...      ...................    ..........  ........     ...   ...  ...    ... ...   ...  ....... ...                                                                                                                                                                                ",
"                                      ...                                                   ..  .   .                                                                                                                                                                                 "};
