/* XPM */
static char * barreltest_xpm[] = {
"64 64 275 2",
"  	c None",
". 	c #C9BDB7",
"+ 	c #A79D97",
"@ 	c #AEA39D",
"# 	c #D1C4BE",
"$ 	c #837871",
"% 	c #A79992",
"& 	c #D2C1B8",
"* 	c #C0B0A8",
"= 	c #7D716A",
"- 	c #615852",
"; 	c #4A423E",
"> 	c #8F8F8F",
", 	c #C2C2C2",
"' 	c #CCCCCC",
") 	c #BFBFBF",
"! 	c #B6B6B6",
"~ 	c #C0C0C0",
"{ 	c #C1C1C1",
"] 	c #8E8D8D",
"^ 	c #635953",
"/ 	c #C2B2A9",
"( 	c #D1C0B7",
"_ 	c #90847D",
": 	c #968982",
"< 	c #D6C9C3",
"[ 	c #AA9F9A",
"} 	c #ACA19B",
"| 	c #C7BBB5",
"1 	c #988F8A",
"2 	c #A29893",
"3 	c #CCC0BA",
"4 	c #59514C",
"5 	c #8E847E",
"6 	c #B4B4B4",
"7 	c #A8A8A8",
"8 	c #969696",
"9 	c #A9A9A9",
"0 	c #CBCBCB",
"a 	c #AFAFAF",
"b 	c #C7C7C7",
"c 	c #D0C0B7",
"d 	c #6B625D",
"e 	c #746A65",
"f 	c #D6CAC3",
"g 	c #9C938E",
"h 	c #9E948F",
"i 	c #C7BCB6",
"j 	c #C8BCB6",
"k 	c #D6C9C2",
"l 	c #CBBDB5",
"m 	c #D0C0B8",
"n 	c #B0B0B0",
"o 	c #838383",
"p 	c #D3D3D3",
"q 	c #D5D5D5",
"r 	c #C9C9C9",
"s 	c #717171",
"t 	c #B5B5B5",
"u 	c #CDBEB6",
"v 	c #CEBFB7",
"w 	c #7C7B7A",
"x 	c #BABABA",
"y 	c #D2D2D2",
"z 	c #B8B8B8",
"A 	c #7A7978",
"B 	c #3A3431",
"C 	c #7D7C7C",
"D 	c #7B7A7A",
"E 	c #48403C",
"F 	c #393330",
"G 	c #595756",
"H 	c #5A5857",
"I 	c #4E4E4E",
"J 	c #535251",
"K 	c #575655",
"L 	c #555353",
"M 	c #545353",
"N 	c #565454",
"O 	c #575555",
"P 	c #48403D",
"Q 	c #665C56",
"R 	c #3F3835",
"S 	c #010101",
"T 	c #25211E",
"U 	c #38322F",
"V 	c #000000",
"W 	c #2E2926",
"X 	c #2E2826",
"Y 	c #322C29",
"Z 	c #36302D",
"` 	c #3F3935",
" .	c #675D57",
"..	c #7C7069",
"+.	c #5F5550",
"@.	c #2C2724",
"#.	c #423B37",
"$.	c #3B3431",
"%.	c #403935",
"&.	c #605651",
"*.	c #D1C1B8",
"=.	c #998E87",
"-.	c #9B9089",
";.	c #D3C4BC",
">.	c #7A6E67",
",.	c #746963",
"'.	c #776B65",
").	c #796D67",
"!.	c #786C65",
"~.	c #786D66",
"{.	c #796D66",
"].	c #D3C5BC",
"^.	c #D5C6BE",
"/.	c #D5C8C0",
"(.	c #CBBAB2",
"_.	c #C8B9B0",
":.	c #D0BFB6",
"<.	c #C3B4AC",
"[.	c #D1C0B8",
"}.	c #C8B8AF",
"|.	c #91847D",
"1.	c #9C9089",
"2.	c #C1B2AA",
"3.	c #857972",
"4.	c #AFA199",
"5.	c #D2C6C0",
"6.	c #D8CCC5",
"7.	c #D6C8C0",
"8.	c #C3B6AE",
"9.	c #CACACA",
"0.	c #C4C4C4",
"a.	c #C5B8B0",
"b.	c #D1C5BE",
"c.	c #8B7E77",
"d.	c #C6B8B0",
"e.	c #A99C95",
"f.	c #82766F",
"g.	c #8B7F78",
"h.	c #CBBBB2",
"i.	c #91857E",
"j.	c #CAB9B0",
"k.	c #988A84",
"l.	c #998A84",
"m.	c #A79891",
"n.	c #BFAEA6",
"o.	c #BDADA5",
"p.	c #A99A93",
"q.	c #B2A49C",
"r.	c #CABAB1",
"s.	c #A0938C",
"t.	c #C9B8B0",
"u.	c #847771",
"v.	c #4F4743",
"w.	c #A2948D",
"x.	c #554C48",
"y.	c #A89A93",
"z.	c #A69891",
"A.	c #574F4B",
"B.	c #A4968F",
"C.	c #CFBEB5",
"D.	c #4E4643",
"E.	c #847872",
"F.	c #ADA099",
"G.	c #B3A59D",
"H.	c #7E726D",
"I.	c #231F1D",
"J.	c #A0928C",
"K.	c #9D9089",
"L.	c #CEBDB4",
"M.	c #7F736E",
"N.	c #928781",
"O.	c #BFB4AE",
"P.	c #C4B9B3",
"Q.	c #BCB1AB",
"R.	c #9E918B",
"S.	c #958C88",
"T.	c #928A86",
"U.	c #A0938D",
"V.	c #C0B5AF",
"W.	c #BDB2AD",
"X.	c #BEB3AE",
"Y.	c #8F847E",
"Z.	c #191615",
"`.	c #8A7F79",
" +	c #A3968F",
".+	c #B2A59F",
"++	c #B5A9A3",
"@+	c #ACA19C",
"#+	c #A49A94",
"$+	c #A39893",
"%+	c #A69B96",
"&+	c #ADA19C",
"*+	c #B0A39D",
"=+	c #9A8C87",
"-+	c #8A807C",
";+	c #887E7A",
">+	c #9B8E88",
",+	c #B2A6A0",
"'+	c #B0A49E",
")+	c #A79C97",
"!+	c #A39994",
"~+	c #ABA09A",
"{+	c #B1A59F",
"]+	c #887D78",
"^+	c #121010",
"/+	c #030303",
"(+	c #827B78",
"_+	c #3D3D3D",
":+	c #333333",
"<+	c #434343",
"[+	c #5E5B5A",
"}+	c #B4A8A2",
"|+	c #847772",
"1+	c #524A46",
"2+	c #584F4B",
"3+	c #948A85",
"4+	c #938883",
"5+	c #5A514D",
"6+	c #B3A7A1",
"7+	c #514946",
"8+	c #857873",
"9+	c #6E6967",
"0+	c #464646",
"a+	c #393939",
"b+	c #756F6D",
"c+	c #191715",
"d+	c #908884",
"e+	c #404040",
"f+	c #3F3F3F",
"g+	c #4F4E4E",
"h+	c #9A908B",
"i+	c #91837D",
"j+	c #A99C96",
"k+	c #A89B95",
"l+	c #4A4A4A",
"m+	c #837C78",
"n+	c #B2A69F",
"o+	c #161313",
"p+	c #9C928E",
"q+	c #444444",
"r+	c #3C3C3C",
"s+	c #6B6562",
"t+	c #AEA19B",
"u+	c #AFA39D",
"v+	c #7D7572",
"w+	c #887D77",
"x+	c #B6AAA4",
"y+	c #4D4D4D",
"z+	c #4C4C4C",
"A+	c #3F3F3E",
"B+	c #AA9E99",
"C+	c #42403F",
"D+	c #887E77",
"E+	c #12110F",
"F+	c #B1A5A0",
"G+	c #3E3E3D",
"H+	c #827A76",
"I+	c #918883",
"J+	c #3E3D3D",
"K+	c #161413",
"L+	c #58524F",
"M+	c #5D5856",
"N+	c #6A6664",
"O+	c #403F3F",
"P+	c #444242",
"Q+	c #4B4948",
"R+	c #676462",
"S+	c #5D5755",
"T+	c #0A0A0A",
"U+	c #2E2E2E",
"V+	c #343434",
"W+	c #373737",
"X+	c #3E3E3E",
"Y+	c #2D2D2D",
"Z+	c #090909",
"                                                                                                                                ",
"                                                                                                                                ",
"                                                                                                                                ",
"                                                                                                                                ",
"                                                                                                                                ",
"                                                                                                                                ",
"                                                                                                                                ",
"                                                                                                                                ",
"                                                                                                                                ",
"                                                                                                                                ",
"                                                                                                                                ",
"                                                                                                                                ",
"                                                                                                                                ",
"                                                                                                                                ",
"                                                                                                                                ",
"                                                                                                                                ",
"                                                                                                                                ",
". . . . . + @ # $ % & & & & & * = = - ; > , ' ' ' ) ! ! ! ! ! ! ! ! ! ! ! ! ~ ' ' ' { ] ; ^ = = / & & & & ( _ : < [ } . . . . | ",
". . . . . 1 2 3 4 5 & & & & & * = = - ; > , , 6 ' 7 8 8 8 8 8 8 8 8 8 8 8 8 9 0 a b { ] ; ^ = = / & & & & c d e f g h . . . . | ",
". . . . . i j k l m & & & & & * = = - ; > ! n o ' p q q q q q q q q q q q q p r s ~ t ] ; ^ = = / & & & & & u v f i i . . . . | ",
". . . . . . . k & & & & & & & * = = - ; w 8 x p y y y y y y y y y y y y y y y y p z 8 A ; ^ = = / & & & & & & & f . . . . . . | ",
". . . . . . . k & & & & & & & * = = - ; B C 8 8 8 8 8 8 8 8 8 8 8 8 8 8 8 8 8 8 8 8 D B ; ^ = = / & & & & & & & f . . . . . . | ",
". . . . . . . k & & & & & & & * = = - ; E F G H I J K I L H H H H H K I M N I O H G F P ; ^ = = / & & & & & & & f . . . . . . | ",
". . . . . . . k & & & & & & & * = = Q ; ; E R R S T U V W R R R R R U V X Y V Z R ` P ; ;  .= = / & & & & & & & f . . . . . . | ",
". . . . . . . k & & & & & & & * = = ..+.; ; ; ; S @.#.V Z ; ; ; ; ; #.V Z $.V %.; ; ; ; &.= = = / & & & & & & & f . . . . . . | ",
". . . . . . . k & & & & & & & *.=.= = ..+.; ; ; S @.#.V Z ; ; ; ; ; #.V Z $.V %.; ; ; &.= = = -.*.& & & & & & & f . . . . . . | ",
". . . . . . . k & & & & & & & & ;.=.= = = >.>.>.,.'.).,.!.>.>.>.>.>.).,.!.~.,.{.>.>.>.= = = -.].& & & & & & & & f . . . . . . | ",
". . . . . . . k & & & & & & & & & ;.=.= = = = = = = = = = = = = = = = = = = = = = = = = = -.].& & & & & & & & & f . . . . . . | ",
". . . . . . . k & & & & & & & & & & ^././././././././././././././././././././././././././.^.& & & & & & & & & & f . . . . . . | ",
". . . . . . . k & & & & & & & & & & & & & & & & & & & & & & & & & & & & & & & & & & & & & & & & & & & & & & & & f . . . . . . | ",
". . . . . . . k & & & & & & (._.& & & & & & & & & & & & & & & & & & & & & & & & & & & & & & & :.<.[.& & & & & & f . . . . . . | ",
". . . . . . . k & & & & & }.|.1.& & & & & & & & & & & & & & & & & & & & & & & & & & & & & & & 2.3.4.( & & & & & f . . . . . . | ",
"5.5.5.5.5.5.5.6.7.7.7.7.7.7.7.8.= = - ; > , ' ' ' 9.0.0.0.0.0.0.0.0.0.0.0.0.9.' ' ' { ] ; ^ = = a.7.7.7.7.7.7.7.6.5.5.5.5.5.5.b.",
". . . . . + @ # $ % & & & & & * = = - ; > , ' ' ' ) ! ! ! ! ! ! ! ! ! ! ! ! ~ ' ' ' { ] ; ^ = = / & & & & ( _ : < [ } . . . . | ",
". . . . . 1 2 3 4 5 & & & & & * = = - ; > , , 6 ' 7 8 8 8 8 8 8 8 8 8 8 8 8 9 0 a b { ] ; ^ = = / & & & & c d e f g h . . . . | ",
". . . . . i j k l m & & & & & * = = - ; > ! n o ' p q q q q q q q q q q q q p r s ~ t ] ; ^ = = / & & & & & u v f i i . . . . | ",
". . . . . . . k & & & & & & & * = = - ; w 8 x p y y y y y y y y y y y y y y y y p z 8 A ; ^ = = / & & & & & & & f . . . . . . | ",
". . . . . . . k & & & & & & & * = = - ; B C 8 8 8 8 8 8 8 8 8 8 8 8 8 8 8 8 8 8 8 8 D B ; ^ = = / & & & & & & & f . . . . . . | ",
". . . . . . . k & & & & & & & * = = - ; E F G H I J K I L H H H H H K I M N I O H G F P ; ^ = = / & & & & & & & f . . . . . . | ",
". . . . . . . k & & & & & & & * = = Q ; ; E R R S T U V W R R R R R U V X Y V Z R ` P ; ;  .= = / & & & & & & & f . . . . . . | ",
". . . . . . . k & & & & & & & * = = ..+.; ; ; ; S @.#.V Z ; ; ; ; ; #.V Z $.V %.; ; ; ; &.= = = / & & & & & & & f . . . . . . | ",
". . . . . . . k & & & & & & & *.=.= = ..+.; ; ; S @.#.V Z ; ; ; ; ; #.V Z $.V %.; ; ; &.= = = -.*.& & & & & & & f . . . . . . | ",
". . . . . . . k & & & & & & & & ;.=.= = = >.>.>.,.'.).,.!.>.>.>.>.>.).,.!.~.,.{.>.>.>.= = = -.].& & & & & & & & f . . . . . . | ",
". . . . . . . k & & & & & & & & & ;.=.= = = = = = = = = = = = = = = = = = = = = = = = = = -.].& & & & & & & & & f . . . . . . | ",
". . . . . . . k & & & & & & & & & & ^././././././././././././././././././././././././././.^.& & & & & & & & & & f . . . . . . | ",
". . . . . . . k & & & & & & & & & & & & & & & & & & & & & & & & & & & & & & & & & & & & & & & & & & & & & & & & f . . . . . . | ",
". . . . . . . k & & & & & & (._.& & & & & & & & & & & & & & & & & & & & & & & & & & & & & & & :.<.[.& & & & & & f . . . . . . | ",
". . . . . . . k & & & & & }.|.1.& & & & & & & & & & & & & & & & & & & & & & & & & & & & & & & 2.3.4.( & & & & & f . . . . . . | ",
". . . . . . . k & & & & }._ c.d.& & & & & & & & & & & & & & & & & & & & & & & & & & & & & & & *.e.f.4.( & & & & f . . . . . . | ",
". . . . . . . k & & & }._ g.d.& & & & & & & & & & & & & & & & & & & & & & & & & & & & & & & & & *.e.f.4.( & & & f . . . . . . | ",
". . . . . . . k & & }._ g.d.& & & & & & & & & & & & & & & & & & & & & & & & & & & & & & & & & & & *.e.f.4.[.& & f . . . . . . | ",
". . . . . . . k & }._ g.d.& & & & & & & & & & & & & & & & & & & & & & & & & & & & & & & & & & & & & *.e.f.4.[.& f . . . . . . | ",
". . . . . . . k h.i.g.d.& & & & & & & & & & & & & j.k.l.& m.k.n.o.k.p.( k.k.(.& & & & & & & & & & & & *.e.f.q.& f . . . . . . | ",
". . . . . . . k r.s.d.& & & & & & & & & & & & & & t.u.v.& w.x.y.z.A.B.C.D.E.r.& & & & & & & & & & & & & *.F.G.& f . . . . . . | ",
". . . . . . . k & & & & & & & & & & & & & & & & & t.H.S & w.I.J.K.@.B.L.V M.r.& & & & & & & & & & & & & & & & & f . . . . . . | ",
"N.e.e.e.e.e.e.O.P.P.P.P.P.P.P.P.P.P.P.P.P.P.P.P.P.Q.H.S P.R.I.S.T.@.U.V.V M.W.P.P.P.P.P.P.P.P.P.P.P.P.P.P.P.P.P.X.e.e.e.e.e.e.Y.",
"Z.`. + + + + +.+++++@+#+$+%+&+++++++++++++++++++++*+H.S ++=+I.-+;+@.>+,+V M.'+++++++++++++++++++++@ )+$+!+~+++++{+ + + + + +]+^+",
"/+Z.`. + + + +{+++++(+_+:+<+[+}+++++++++++++++++++*+|+1+++=+2+3+4+5+>+6+7+8+'+++++++++++++++++++++9+0+:+a+b+++++{+ + + + +]+^+/+",
"/+/+c+`. + + +6+++++d+e+:+f+g+h+++++++++++++++++++*+i+i+++=+i+j+k+i+>+++i+i+'+++++++++++++++++++%+l+<+:+_+m+++++n+ + + +]+^+/+/+",
"/+/+/+o+`. + +++++++p+q+:+r+g+s+++++++++++++++++++}+t+t+++u+t+,+,+t+u+++t+t+}+++++++++++++++++++v+g+f+:+e+d+++++}+ + +w+^+/+/+/+",
"/+/+/+/+o+`. +x+++++)+y+z+z+y+A+B+++++++++++++++++++++++++++++++++++++++++++++++++++++++++++++{+C+I z+z+z+g ++++++ +D+E+/+/+/+/+",
"/+/+/+/+/+o+`.x+++++F+y+y+y+y+G+H+++++++++++++++++++++++++++++++++++++++++++++++++++++++++++++I+J+y+y+y+y+)+++++x+D+E+/+/+/+/+/+",
"/+/+/+/+/+/+K+L+M+N+N+I y+y+y+O+P+N+N+N+N+N+N+N+N+N+N+N+N+N+N+N+N+N+N+N+N+N+N+N+N+N+N+N+N+N+N+Q+r+y+y+y+y+R+N+S+L+E+/+/+/+/+/+/+",
"/+/+/+/+/+/+/+/+T+U+V+_+f+f+f+a+V+V+V+V+V+V+V+V+V+V+V+V+V+V+V+V+V+V+V+V+V+V+V+V+V+V+V+V+V+V+V+V+W+f+f+f+X+V+Y+Z+/+/+/+/+/+/+/+/+"};
