/* XPM */
static char * barrel_xpm[] = {
"64 64 482 2",
"  	c #030303",
". 	c #131313",
"+ 	c #595959",
"@ 	c #666666",
"# 	c #5B5B5B",
"$ 	c #585858",
"% 	c #535353",
"& 	c #565656",
"* 	c #515151",
"= 	c #3B3633",
"- 	c #8E8783",
"; 	c #908985",
"> 	c #948E8A",
", 	c #4F4F4E",
"' 	c #4D4D4D",
") 	c #414040",
"! 	c #595654",
"~ 	c #666260",
"{ 	c #3D3D3D",
"] 	c #8D8784",
"^ 	c #908984",
"/ 	c #8E8782",
"( 	c #383230",
"_ 	c #BEAFA7",
": 	c #DFD4CD",
"< 	c #E0D5CE",
"[ 	c #D7CDC6",
"} 	c #403F3F",
"| 	c #ABA29D",
"1 	c #BCB3AD",
"2 	c #CBC1BB",
"3 	c #BDAEA6",
"4 	c #D2C1B8",
"5 	c #DED3CC",
"6 	c #4B4B4B",
"7 	c #484848",
"8 	c #494949",
"9 	c #484746",
"0 	c #585553",
"a 	c #515050",
"b 	c #4A4A4A",
"c 	c #BBB2AD",
"d 	c #DED2CB",
"e 	c #DDD2CB",
"f 	c #434343",
"g 	c #333333",
"h 	c #3C3C3C",
"i 	c #515150",
"j 	c #A39C97",
"k 	c #4F4F4F",
"l 	c #404040",
"m 	c #ACA5A0",
"n 	c #DDD1CA",
"o 	c #C6BCB6",
"p 	c #D8CCC6",
"q 	c #A89B95",
"r 	c #B6AAA4",
"s 	c #CDC1BA",
"t 	c #CBC0B9",
"u 	c #B8ACA6",
"v 	c #D9CEC7",
"w 	c #D4CAC3",
"x 	c #504F4E",
"y 	c #98918D",
"z 	c #DDD1C9",
"A 	c #DCD0C8",
"B 	c #9A938F",
"C 	c #3F3F3F",
"D 	c #353535",
"E 	c #484847",
"F 	c #797573",
"G 	c #D5CAC3",
"H 	c #867974",
"I 	c #605752",
"J 	c #A79A94",
"K 	c #645A56",
"L 	c #B7ADA7",
"M 	c #B5ABA5",
"N 	c #665B57",
"O 	c #A99D97",
"P 	c #605652",
"Q 	c #877A74",
"R 	c #D7CBC5",
"S 	c #908A87",
"T 	c #4C4B4B",
"U 	c #3A3A3A",
"V 	c #87827F",
"W 	c #DCCFC8",
"X 	c #DBCFC7",
"Y 	c #7E726D",
"Z 	c #010101",
"` 	c #231F1D",
" .	c #AAA19C",
"..	c #A89F9A",
"+.	c #2C2724",
"@.	c #DBD0CA",
"#.	c #000000",
"$.	c #7F736E",
"%.	c #DBCEC7",
"&.	c #BBAEA6",
"*.	c #CFC0B8",
"=.	c #DDD1CB",
"-.	c #DDD2CC",
";.	c #D5C9C3",
">.	c #DCD1CA",
",.	c #B8ABA4",
"'.	c #C9BDB7",
").	c #D6C9C2",
"!.	c #C9B8B0",
"~.	c #A2948D",
"{.	c #A0928C",
"].	c #9D9089",
"^.	c #A4968F",
"/.	c #CEBDB4",
"(.	c #CABAB1",
"_.	c #D6CAC3",
":.	c #C7BBB5",
"<.	c #CCBCB3",
"[.	c #978A83",
"}.	c #BAABA3",
"|.	c #827670",
"1.	c #443D3A",
"2.	c #4B4440",
"3.	c #A69891",
"4.	c #4F4743",
"5.	c #CFBEB5",
"6.	c #433D39",
"7.	c #837671",
"8.	c #CDBCB4",
"9.	c #9E918A",
"0.	c #B3A59E",
"a.	c #D0C0B7",
"b.	c #9D918A",
"c.	c #847871",
"d.	c #B9ABA3",
"e.	c #91837D",
"f.	c #92847E",
"g.	c #BCACA5",
"h.	c #BBABA3",
"i.	c #D1C0B7",
"j.	c #9B8E87",
"k.	c #857871",
"l.	c #BFB1A9",
"m.	c #CFBFB7",
"n.	c #BDADA5",
"o.	c #C2B2A9",
"p.	c #CAB9B1",
"q.	c #C3B2AA",
"r.	c #BCAFA7",
"s.	c #D2C2B9",
"t.	c #CDBCB3",
"u.	c #968983",
"v.	c #BCADA4",
"w.	c #897D76",
"x.	c #CABBB2",
"y.	c #CBBBB2",
"z.	c #C1B1A9",
"A.	c #CCBBB2",
"B.	c #8A7D76",
"C.	c #7D716A",
"D.	c #8B7E77",
"E.	c #CAB9B0",
"F.	c #7A6E67",
"G.	c #6F655E",
"H.	c #6C625B",
"I.	c #6D635C",
"J.	c #6F645E",
"K.	c #6C615B",
"L.	c #6E635D",
"M.	c #6E645D",
"N.	c #7A6E68",
"O.	c #CBBAB2",
"P.	c #796E67",
"Q.	c #48413D",
"R.	c #332E2B",
"S.	c #1D1A18",
"T.	c #2D2926",
"U.	c #24211E",
"V.	c #282421",
"W.	c #2C2725",
"X.	c #4A423E",
"Y.	c #CCBBB3",
"Z.	c #C0B0A8",
"`.	c #36302D",
" +	c #3C3632",
".+	c #35302D",
"++	c #2B2724",
"@+	c #2B2624",
"#+	c #2F2A27",
"$+	c #342E2B",
"%+	c #59504B",
"&+	c #473F3B",
"*+	c #423B37",
"=+	c #3B3431",
"-+	c #403935",
";+	c #5B524D",
">+	c #584F4A",
",+	c #514A47",
"'+	c #716F6D",
")+	c #726F6D",
"!+	c #606060",
"~+	c #676665",
"{+	c #6F6C6B",
"]+	c #6A6868",
"^+	c #6C6A69",
"/+	c #6E6B6A",
"(+	c #716E6D",
"_+	c #504945",
":+	c #5A514C",
"<+	c #615752",
"[+	c #8A8989",
"}+	c #979797",
"|+	c #A5A5A5",
"1+	c #898887",
"2+	c #625853",
"3+	c #615852",
"4+	c #888686",
"5+	c #C3C3C3",
"6+	c #CBCBCB",
"7+	c #CFCFCF",
"8+	c #CACACA",
"9+	c #868584",
"0+	c #635953",
"a+	c #C0B4AE",
"b+	c #C2B6B0",
"c+	c #BBACA4",
"d+	c #C7B7AE",
"e+	c #909090",
"f+	c #BDBDBD",
"g+	c #AAAAAA",
"h+	c #797979",
"i+	c #CCCCCC",
"j+	c #B4B4B4",
"k+	c #A8A8A8",
"l+	c #B5B5B5",
"m+	c #C8C8C8",
"n+	c #646464",
"o+	c #BBBBBB",
"p+	c #BCBCBC",
"q+	c #8F8E8E",
"r+	c #C0B1A8",
"s+	c #C2B2AA",
"t+	c #C0B5AF",
"u+	c #C1B5AF",
"v+	c #918883",
"w+	c #9D938E",
"x+	c #C8BDB7",
"y+	c #4A433E",
"z+	c #847A74",
"A+	c #8F8F8F",
"B+	c #C2C2C2",
"C+	c #C1C1C1",
"D+	c #B9B9B9",
"E+	c #BEBEBE",
"F+	c #8E8D8D",
"G+	c #CFBFB6",
"H+	c #645B56",
"I+	c #D6C9C3",
"J+	c #968D88",
"K+	c #988F8A",
"L+	c #B6ABA6",
"M+	c #B9AFA9",
"N+	c #D4C8C1",
"O+	c #A29791",
"P+	c #B9ACA5",
"Q+	c #CECECE",
"R+	c #AB9F99",
"S+	c #AFA39C",
"T+	c #D7CAC3",
"U+	c #B8ADA8",
"V+	c #AEA29B",
"W+	c #B3A69F",
"X+	c #B1A39C",
"Y+	c #969696",
"Z+	c #A6A6A6",
"`+	c #A79992",
" @	c #AEA19B",
".@	c #D2C6C0",
"+@	c #D8CCC5",
"@@	c #D6C8C0",
"#@	c #C3B6AE",
"$@	c #C4C4C4",
"%@	c #C5B8B0",
"&@	c #D1C5BE",
"*@	c #A79D97",
"=@	c #AEA39D",
"-@	c #D1C4BE",
";@	c #837871",
">@	c #BFBFBF",
",@	c #B6B6B6",
"'@	c #C0C0C0",
")@	c #90847D",
"!@	c #968982",
"~@	c #AA9F9A",
"{@	c #ACA19B",
"]@	c #A29893",
"^@	c #CCC0BA",
"/@	c #59514C",
"(@	c #8E847E",
"_@	c #A9A9A9",
":@	c #AFAFAF",
"<@	c #C7C7C7",
"[@	c #6B625D",
"}@	c #746A65",
"|@	c #9C938E",
"1@	c #9E948F",
"2@	c #C7BCB6",
"3@	c #C8BCB6",
"4@	c #CBBDB5",
"5@	c #D0C0B8",
"6@	c #B0B0B0",
"7@	c #838383",
"8@	c #D3D3D3",
"9@	c #D5D5D5",
"0@	c #C9C9C9",
"a@	c #717171",
"b@	c #CDBEB6",
"c@	c #CEBFB7",
"d@	c #7C7B7A",
"e@	c #BABABA",
"f@	c #D2D2D2",
"g@	c #B8B8B8",
"h@	c #7A7978",
"i@	c #3A3431",
"j@	c #7D7C7C",
"k@	c #7B7A7A",
"l@	c #48403C",
"m@	c #393330",
"n@	c #595756",
"o@	c #5A5857",
"p@	c #4E4E4E",
"q@	c #535251",
"r@	c #575655",
"s@	c #555353",
"t@	c #545353",
"u@	c #565454",
"v@	c #575555",
"w@	c #48403D",
"x@	c #665C56",
"y@	c #3F3835",
"z@	c #25211E",
"A@	c #38322F",
"B@	c #2E2926",
"C@	c #2E2826",
"D@	c #322C29",
"E@	c #3F3935",
"F@	c #675D57",
"G@	c #7C7069",
"H@	c #5F5550",
"I@	c #605651",
"J@	c #D1C1B8",
"K@	c #998E87",
"L@	c #9B9089",
"M@	c #D3C4BC",
"N@	c #746963",
"O@	c #776B65",
"P@	c #796D67",
"Q@	c #786C65",
"R@	c #786D66",
"S@	c #796D66",
"T@	c #D3C5BC",
"U@	c #D5C6BE",
"V@	c #D5C8C0",
"W@	c #C8B9B0",
"X@	c #D0BFB6",
"Y@	c #C3B4AC",
"Z@	c #D1C0B8",
"`@	c #C8B8AF",
" #	c #91847D",
".#	c #9C9089",
"+#	c #C1B2AA",
"@#	c #857972",
"##	c #AFA199",
"$#	c #C6B8B0",
"%#	c #A99C95",
"&#	c #82766F",
"*#	c #8B7F78",
"=#	c #91857E",
"-#	c #988A84",
";#	c #998A84",
">#	c #A79891",
",#	c #BFAEA6",
"'#	c #A99A93",
")#	c #B2A49C",
"!#	c #A0938C",
"~#	c #847771",
"{#	c #554C48",
"]#	c #A89A93",
"^#	c #574F4B",
"/#	c #4E4643",
"(#	c #847872",
"_#	c #ADA099",
":#	c #B3A59D",
"<#	c #928781",
"[#	c #BFB4AE",
"}#	c #C4B9B3",
"|#	c #BCB1AB",
"1#	c #9E918B",
"2#	c #958C88",
"3#	c #928A86",
"4#	c #A0938D",
"5#	c #BDB2AD",
"6#	c #BEB3AE",
"7#	c #8F847E",
"8#	c #191615",
"9#	c #8A7F79",
"0#	c #A3968F",
"a#	c #B2A59F",
"b#	c #B5A9A3",
"c#	c #ACA19C",
"d#	c #A49A94",
"e#	c #A39893",
"f#	c #A69B96",
"g#	c #ADA19C",
"h#	c #B0A39D",
"i#	c #9A8C87",
"j#	c #8A807C",
"k#	c #887E7A",
"l#	c #9B8E88",
"m#	c #B2A6A0",
"n#	c #B0A49E",
"o#	c #A79C97",
"p#	c #A39994",
"q#	c #ABA09A",
"r#	c #B1A59F",
"s#	c #887D78",
"t#	c #121010",
"u#	c #827B78",
"v#	c #5E5B5A",
"w#	c #B4A8A2",
"x#	c #847772",
"y#	c #524A46",
"z#	c #584F4B",
"A#	c #948A85",
"B#	c #938883",
"C#	c #5A514D",
"D#	c #B3A7A1",
"E#	c #514946",
"F#	c #857873",
"G#	c #6E6967",
"H#	c #464646",
"I#	c #393939",
"J#	c #756F6D",
"K#	c #191715",
"L#	c #908884",
"M#	c #4F4E4E",
"N#	c #9A908B",
"O#	c #A99C96",
"P#	c #837C78",
"Q#	c #B2A69F",
"R#	c #161313",
"S#	c #9C928E",
"T#	c #444444",
"U#	c #6B6562",
"V#	c #AFA39D",
"W#	c #7D7572",
"X#	c #887D77",
"Y#	c #4C4C4C",
"Z#	c #3F3F3E",
"`#	c #AA9E99",
" $	c #42403F",
".$	c #887E77",
"+$	c #12110F",
"@$	c #B1A5A0",
"#$	c #3E3E3D",
"$$	c #827A76",
"%$	c #3E3D3D",
"&$	c #161413",
"*$	c #58524F",
"=$	c #5D5856",
"-$	c #6A6664",
";$	c #444242",
">$	c #4B4948",
",$	c #676462",
"'$	c #5D5755",
")$	c #0A0A0A",
"!$	c #2E2E2E",
"~$	c #343434",
"{$	c #373737",
"]$	c #3E3E3E",
"^$	c #2D2D2D",
"/$	c #090909",
"                . + @ # $ $ $ % % @ @ @ @ @ @ @ @ @ @ @ @ @ @ @ @ @ @ @ @ @ @ @ @ @ @ @ @ @ @ & * $ $ $ + @ $ .                 ",
"            = - ; > > , ' ' ' ) ! > > > > > > > > > > > > > > > > > > > > > > > > > > > > > > ~ { ' ' ' ' ] > ^ / (             ",
"          = _ : < < [ ' ' ' ' } | < < < < < < < < < < < < < < < < < < < < < < < < < < < < < < 1 } ' ' ' ' 2 < < : 3 (           ",
"        = _ 4 5 < < 2 6 7 8 ' 9 [ < < < < < < < < < < < < < < < < < < < < < < < < < < < < < < 5 0 a 8 7 b c < < d 4 3 (         ",
"      = _ 4 4 e < < c f g h i ; < < < < < < < < < < < < < < < < < < < < < < < < < < < < < < < < j k l g l m < < n 4 4 3 (       ",
"    = _ 4 4 4 n < < m l g l , o < < < < < < < < < p q q < r q s t q u : q q v < < < < < < < < < w x f g h y < < z 4 4 4 3 (     ",
"  = _ 4 4 4 4 A < < B C D E F < < < < < < < < < < G H I < J K L M N O e P Q R < < < < < < < < < < S T D U V < < W 4 4 4 4 3 (   ",
"= _ 4 4 4 4 4 X < < < < < < < < < < < < < < < < < G Y Z < J `  ...+.O @.#.$.R < < < < < < < < < < < < < < < < < %.4 4 4 4 4 3 ( ",
"&.*.*.*.*.*.*.=.-.< < < < < < < < < < < < < < < < ;.Y Z < J `  ...+.O @.#.$.R < < < < < < < < < < < < < < < < < >.*.*.*.*.*.*.,.",
"'.'.'.'.'.'.'.).4 4 4 4 4 4 4 4 4 4 4 4 4 4 4 4 4 !.Y Z 4 ~.` {.].+.^./.#.$.(.4 4 4 4 4 4 4 4 4 4 4 4 4 4 4 4 4 _.'.'.'.'.'.'.:.",
"'.'.'.'.'.'.'.).<.[.}.4 4 4 4 4 4 4 4 4 4 4 4 4 4 !.|.1.4 ~.2.3.^.4.^.5.6.7.(.4 4 4 4 4 4 4 4 4 4 4 4 4 8.9.0.4 _.'.'.'.'.'.'.:.",
"'.'.'.'.'.'.'.).a.b.c.d.4 4 4 4 4 4 4 4 4 4 4 4 4 !.e.f.4 ~.e.g.h.e.^.i.e.e.(.4 4 4 4 4 4 4 4 4 4 4 4 8.j.k.l.4 _.'.'.'.'.'.'.:.",
"'.'.'.'.'.'.'.).4 m.b.c.d.4 4 4 4 4 4 4 4 4 4 4 4 5.n.n.4 o.n.(.p.n.q.4 n.n.5.4 4 4 4 4 4 4 4 4 4 4 8.j.k.r.s.4 _.'.'.'.'.'.'.:.",
"'.'.'.'.'.'.'.).4 4 m.b.c.d.4 4 4 4 4 4 4 4 4 4 4 4 4 4 4 4 4 4 4 4 4 4 4 4 4 4 4 4 4 4 4 4 4 4 4 t.j.k.r.s.4 4 _.'.'.'.'.'.'.:.",
"'.'.'.'.'.'.'.).4 4 4 m.b.c.d.4 4 4 4 4 4 4 4 4 4 4 4 4 4 4 4 4 4 4 4 4 4 4 4 4 4 4 4 4 4 4 4 4 t.j.k.r.s.4 4 4 _.'.'.'.'.'.'.:.",
"'.'.'.'.'.'.'.).4 4 4 4 m.b.c.d.4 4 4 4 4 4 4 4 4 4 4 4 4 4 4 4 4 4 4 4 4 4 4 4 4 4 4 4 4 4 4 8.j.k.r.s.4 4 4 4 _.'.'.'.'.'.'.:.",
"'.'.'.'.'.'.'.).4 4 4 4 4 m.b.u.i.4 4 4 4 4 4 4 4 4 4 4 4 4 4 4 4 4 4 4 4 4 4 4 4 4 4 4 4 4 4 v.w.r.s.4 4 4 4 4 _.'.'.'.'.'.'.:.",
"'.'.'.'.'.'.'.).4 4 4 4 4 4 a.<.4 4 4 4 4 4 4 4 4 4 4 4 4 4 4 4 4 4 4 4 4 4 4 4 4 4 4 4 4 4 4 a.x.s.4 4 4 4 4 4 _.'.'.'.'.'.'.:.",
"'.'.'.'.'.'.'.).4 4 4 4 4 4 4 4 4 4 4 4 4 4 4 4 4 4 4 4 4 4 4 4 4 4 4 4 4 4 4 4 4 4 4 4 4 4 4 4 4 4 4 4 4 4 4 4 _.'.'.'.'.'.'.:.",
"'.'.'.'.'.'.'.).4 4 4 4 4 4 4 4 4 4 y.z.z.z.z.z.z.z.z.z.z.z.z.z.z.z.z.z.z.z.z.z.z.z.z.z.z.A.4 4 4 4 4 4 4 4 4 4 _.'.'.'.'.'.'.:.",
"'.'.'.'.'.'.'.).4 4 4 4 4 4 4 4 4 !.B.C.C.C.C.C.C.C.C.C.C.C.C.C.C.C.C.C.C.C.C.C.C.C.C.C.C.D.E.4 4 4 4 4 4 4 4 4 _.'.'.'.'.'.'.:.",
"'.'.'.'.'.'.'.).4 4 4 4 4 4 4 4 !.B.C.C.F.G.G.G.H.I.J.K.L.G.G.G.G.G.J.K.L.M.K.J.G.G.G.N.C.C.D.E.4 4 4 4 4 4 4 4 _.'.'.'.'.'.'.:.",
"'.'.'.'.'.'.'.).4 4 4 4 4 4 4 O.B.C.C.P.Q.R.R.R.Z S.T.#.U.R.R.R.R.R.T.#.U.V.#.W.R.R.R.X.F.C.C.D.Y.4 4 4 4 4 4 4 _.'.'.'.'.'.'.:.",
"'.'.'.'.'.'.'.).4 4 4 4 4 4 4 Z.C.C.P.Q.`. + + +Z ` .+#.++ + + + + +`.#.@+#+#.$+ + + +.+X.F.C.C.o.4 4 4 4 4 4 4 _.'.'.'.'.'.'.:.",
"'.'.'.'.'.'.'.).4 4 4 4 4 4 4 Z.C.C.%+`.&+X.X.X.Z +.*+#.`.X.X.X.X.X.*+#.`.=+#.-+X.X.X.&+.+;+C.C.o.4 4 4 4 4 4 4 _.'.'.'.'.'.'.:.",
"'.'.'.'.'.'.'.).4 4 4 4 4 4 4 Z.C.C.>+&+X.,+'+)+!+~+{+!+]+)+)+)+)+)+{+!+]+^+!+/+)+(+_+X.&+:+C.C.o.4 4 4 4 4 4 4 _.'.'.'.'.'.'.:.",
"'.'.'.'.'.'.'.).4 4 4 4 4 4 4 Z.C.C.<+X.,+[+}+|+|+|+|+|+|+|+|+|+|+|+|+|+|+|+|+|+|+}+1+_+X.2+C.C.o.4 4 4 4 4 4 4 _.'.'.'.'.'.'.:.",
"'.'.'.'.'.'.'.).4 4 4 4 4 4 4 Z.C.C.3+X.4+}+5+6+7+7+7+7+7+7+7+7+7+7+7+7+7+7+7+7+8+5+}+9+X.0+C.C.o.4 4 4 4 4 4 4 _.'.'.'.'.'.'.:.",
"'.'.'.'.'.a+b+).c+d+4 4 4 4 4 Z.C.C.3+X.e+f+g+h+i+j+k+k+k+k+k+k+k+k+k+k+k+k+l+m+n+o+p+q+X.0+C.C.o.4 4 4 4 4 r+s+_.t+u+'.'.'.'.:.",
"'.'.'.'.'.v+w+x+y+z+4 4 4 4 4 Z.C.C.3+X.A+B+m+C+i+D+g+g+g+g+g+g+g+g+g+g+g+g+D+i+E+8+C+F+X.0+C.C.o.4 4 4 4 G+;+H+I+J+K+'.'.'.'.:.",
"'.'.'.'.'.L+M+N+O+P+4 4 4 4 4 Z.C.C.3+X.A+B+i+i+i+Q+7+7+7+7+7+7+7+7+7+7+7+7+Q+i+i+i+C+F+X.0+C.C.o.4 4 4 4 4 R+S+T+L U+'.'.'.'.:.",
"V+V+V+V+V+V+V+W+X+X+X+X+X+X+X+3.C.C.3+X.A+B+i+i+i+|+Y+Y+Y+Y+Y+Y+Y+Y+Y+Y+Y+Y+Z+i+i+i+C+F+X.0+C.C.`+X+X+X+X+X+X+X+W+V+V+V+V+V+V+ @",
".@.@.@.@.@.@.@+@@@@@@@@@@@@@@@#@C.C.3+X.A+B+i+i+i+8+$@$@$@$@$@$@$@$@$@$@$@$@8+i+i+i+C+F+X.0+C.C.%@@@@@@@@@@@@@@@+@.@.@.@.@.@.@&@",
"'.'.'.'.'.*@=@-@;@`+4 4 4 4 4 Z.C.C.3+X.A+B+i+i+i+>@,@,@,@,@,@,@,@,@,@,@,@,@'@i+i+i+C+F+X.0+C.C.o.4 4 4 4 i.)@!@I+~@{@'.'.'.'.:.",
"'.'.'.'.'.K+]@^@/@(@4 4 4 4 4 Z.C.C.3+X.A+B+B+j+i+k+Y+Y+Y+Y+Y+Y+Y+Y+Y+Y+Y+Y+_@6+:@<@C+F+X.0+C.C.o.4 4 4 4 a.[@}@_.|@1@'.'.'.'.:.",
"'.'.'.'.'.2@3@).4@5@4 4 4 4 4 Z.C.C.3+X.A+,@6@7@i+8@9@9@9@9@9@9@9@9@9@9@9@9@8@0@a@'@l+F+X.0+C.C.o.4 4 4 4 4 b@c@_.2@2@'.'.'.'.:.",
"'.'.'.'.'.'.'.).4 4 4 4 4 4 4 Z.C.C.3+X.d@Y+e@8@f@f@f@f@f@f@f@f@f@f@f@f@f@f@f@f@8@g@Y+h@X.0+C.C.o.4 4 4 4 4 4 4 _.'.'.'.'.'.'.:.",
"'.'.'.'.'.'.'.).4 4 4 4 4 4 4 Z.C.C.3+X.i@j@Y+Y+Y+Y+Y+Y+Y+Y+Y+Y+Y+Y+Y+Y+Y+Y+Y+Y+Y+Y+k@i@X.0+C.C.o.4 4 4 4 4 4 4 _.'.'.'.'.'.'.:.",
"'.'.'.'.'.'.'.).4 4 4 4 4 4 4 Z.C.C.3+X.l@m@n@o@p@q@r@p@s@o@o@o@o@o@r@p@t@u@p@v@o@n@m@w@X.0+C.C.o.4 4 4 4 4 4 4 _.'.'.'.'.'.'.:.",
"'.'.'.'.'.'.'.).4 4 4 4 4 4 4 Z.C.C.x@X.X.l@y@y@Z z@A@#.B@y@y@y@y@y@A@#.C@D@#.`.y@E@w@X.X.F@C.C.o.4 4 4 4 4 4 4 _.'.'.'.'.'.'.:.",
"'.'.'.'.'.'.'.).4 4 4 4 4 4 4 Z.C.C.G@H@X.X.X.X.Z +.*+#.`.X.X.X.X.X.*+#.`.=+#.-+X.X.X.X.I@C.C.C.o.4 4 4 4 4 4 4 _.'.'.'.'.'.'.:.",
"'.'.'.'.'.'.'.).4 4 4 4 4 4 4 J@K@C.C.G@H@X.X.X.Z +.*+#.`.X.X.X.X.X.*+#.`.=+#.-+X.X.X.I@C.C.C.L@J@4 4 4 4 4 4 4 _.'.'.'.'.'.'.:.",
"'.'.'.'.'.'.'.).4 4 4 4 4 4 4 4 M@K@C.C.C.F.F.F.N@O@P@N@Q@F.F.F.F.F.P@N@Q@R@N@S@F.F.F.C.C.C.L@T@4 4 4 4 4 4 4 4 _.'.'.'.'.'.'.:.",
"'.'.'.'.'.'.'.).4 4 4 4 4 4 4 4 4 M@K@C.C.C.C.C.C.C.C.C.C.C.C.C.C.C.C.C.C.C.C.C.C.C.C.C.C.L@T@4 4 4 4 4 4 4 4 4 _.'.'.'.'.'.'.:.",
"'.'.'.'.'.'.'.).4 4 4 4 4 4 4 4 4 4 U@V@V@V@V@V@V@V@V@V@V@V@V@V@V@V@V@V@V@V@V@V@V@V@V@V@V@U@4 4 4 4 4 4 4 4 4 4 _.'.'.'.'.'.'.:.",
"'.'.'.'.'.'.'.).4 4 4 4 4 4 4 4 4 4 4 4 4 4 4 4 4 4 4 4 4 4 4 4 4 4 4 4 4 4 4 4 4 4 4 4 4 4 4 4 4 4 4 4 4 4 4 4 _.'.'.'.'.'.'.:.",
"'.'.'.'.'.'.'.).4 4 4 4 4 4 O.W@4 4 4 4 4 4 4 4 4 4 4 4 4 4 4 4 4 4 4 4 4 4 4 4 4 4 4 4 4 4 4 X@Y@Z@4 4 4 4 4 4 _.'.'.'.'.'.'.:.",
"'.'.'.'.'.'.'.).4 4 4 4 4 `@ #.#4 4 4 4 4 4 4 4 4 4 4 4 4 4 4 4 4 4 4 4 4 4 4 4 4 4 4 4 4 4 4 +#@###i.4 4 4 4 4 _.'.'.'.'.'.'.:.",
"'.'.'.'.'.'.'.).4 4 4 4 `@)@D.$#4 4 4 4 4 4 4 4 4 4 4 4 4 4 4 4 4 4 4 4 4 4 4 4 4 4 4 4 4 4 4 J@%#&###i.4 4 4 4 _.'.'.'.'.'.'.:.",
"'.'.'.'.'.'.'.).4 4 4 `@)@*#$#4 4 4 4 4 4 4 4 4 4 4 4 4 4 4 4 4 4 4 4 4 4 4 4 4 4 4 4 4 4 4 4 4 J@%#&###i.4 4 4 _.'.'.'.'.'.'.:.",
"'.'.'.'.'.'.'.).4 4 `@)@*#$#4 4 4 4 4 4 4 4 4 4 4 4 4 4 4 4 4 4 4 4 4 4 4 4 4 4 4 4 4 4 4 4 4 4 4 J@%#&###Z@4 4 _.'.'.'.'.'.'.:.",
"'.'.'.'.'.'.'.).4 `@)@*#$#4 4 4 4 4 4 4 4 4 4 4 4 4 4 4 4 4 4 4 4 4 4 4 4 4 4 4 4 4 4 4 4 4 4 4 4 4 J@%#&###Z@4 _.'.'.'.'.'.'.:.",
"'.'.'.'.'.'.'.).y.=#*#$#4 4 4 4 4 4 4 4 4 4 4 4 4 E.-#;#4 >#-#,#n.-#'#i.-#-#O.4 4 4 4 4 4 4 4 4 4 4 4 J@%#&#)#4 _.'.'.'.'.'.'.:.",
"'.'.'.'.'.'.'.).(.!#$#4 4 4 4 4 4 4 4 4 4 4 4 4 4 !.~#4.4 ~.{#]#3.^#^.5./#(#(.4 4 4 4 4 4 4 4 4 4 4 4 4 J@_#:#4 _.'.'.'.'.'.'.:.",
"'.'.'.'.'.'.'.).4 4 4 4 4 4 4 4 4 4 4 4 4 4 4 4 4 !.Y Z 4 ~.` {.].+.^./.#.$.(.4 4 4 4 4 4 4 4 4 4 4 4 4 4 4 4 4 _.'.'.'.'.'.'.:.",
"<#%#%#%#%#%#%#[#}#}#}#}#}#}#}#}#}#}#}#}#}#}#}#}#}#|#Y Z }#1#` 2#3#+.4#t+#.$.5#}#}#}#}#}#}#}#}#}#}#}#}#}#}#}#}#}#6#%#%#%#%#%#%#7#",
"8#9#0#0#0#0#0#a#b#b#c#d#e#f#g#b#b#b#b#b#b#b#b#b#b#h#Y Z b#i#` j#k#+.l#m##.$.n#b#b#b#b#b#b#b#b#b#b#=@o#e#p#q#b#b#r#0#0#0#0#0#s#t#",
"  8#9#0#0#0#0#r#b#b#u#{ g f v#w#b#b#b#b#b#b#b#b#b#h#x#y#b#i#z#A#B#C#l#D#E#F#n#b#b#b#b#b#b#b#b#b#b#G#H#g I#J#b#b#r#0#0#0#0#s#t#  ",
"    K#9#0#0#0#D#b#b#L#l g C M#N#b#b#b#b#b#b#b#b#b#h#e.e.b#i#e.O#q e.l#b#e.e.n#b#b#b#b#b#b#b#b#b#f#b f g { P#b#b#Q#0#0#0#s#t#    ",
"      R#9#0#0#b#b#b#S#T#g h M#U#b#b#b#b#b#b#b#b#b#w# @ @b#V# @m#m# @V#b# @ @w#b#b#b#b#b#b#b#b#b#W#M#C g l L#b#b#w#0#0#X#t#      ",
"        R#9#0#r b#b#o#' Y#Y#' Z#`#b#b#b#b#b#b#b#b#b#b#b#b#b#b#b#b#b#b#b#b#b#b#b#b#b#b#b#b#b#b#r# $p@Y#Y#Y#|@b#b#b#0#.$+$        ",
"          R#9#r b#b#@$' ' ' ' #$$$b#b#b#b#b#b#b#b#b#b#b#b#b#b#b#b#b#b#b#b#b#b#b#b#b#b#b#b#b#b#v+%$' ' ' ' o#b#b#r .$+$          ",
"            &$*$=$-$-$p@' ' ' } ;$-$-$-$-$-$-$-$-$-$-$-$-$-$-$-$-$-$-$-$-$-$-$-$-$-$-$-$-$-$-$>$h ' ' ' ' ,$-$'$*$+$            ",
"                )$!$~${ C C C I#~$~$~$~$~$~$~$~$~$~$~$~$~$~$~$~$~$~$~$~$~$~$~$~$~$~$~$~$~$~$~$~${$C C C ]$~$^$/$                "};
